<mxfile host="app.diagrams.net" modified="2023-10-09T14:03:05.032Z" agent="Mozilla/5.0 (Macintosh; Intel Mac OS X 10_15_7) AppleWebKit/537.36 (KHTML, like Gecko) Chrome/117.0.0.0 Safari/537.36" etag="fQ3UIM4y5DtRRPQiGRGo" version="22.0.4" type="device">
  <diagram id="C5RBs43oDa-KdzZeNtuy" name="Page-1">
    <mxGraphModel dx="913" dy="1209" grid="1" gridSize="10" guides="1" tooltips="1" connect="1" arrows="1" fold="1" page="1" pageScale="1" pageWidth="827" pageHeight="1169" math="0" shadow="0">
      <root>
        <mxCell id="WIyWlLk6GJQsqaUBKTNV-0" />
        <mxCell id="WIyWlLk6GJQsqaUBKTNV-1" parent="WIyWlLk6GJQsqaUBKTNV-0" />
        <mxCell id="QqLcVwo9QoX3QOBpYelw-40" value="" style="edgeStyle=orthogonalEdgeStyle;rounded=0;orthogonalLoop=1;jettySize=auto;html=1;" edge="1" parent="WIyWlLk6GJQsqaUBKTNV-1" source="jcfoB18Za6nkCLDU9kAL-1" target="jcfoB18Za6nkCLDU9kAL-6">
          <mxGeometry relative="1" as="geometry" />
        </mxCell>
        <mxCell id="jcfoB18Za6nkCLDU9kAL-1" value="&lt;meta charset=&quot;utf-8&quot;&gt;&lt;span style=&quot;color: rgb(0, 0, 0); font-family: Helvetica; font-size: 12px; font-style: normal; font-variant-ligatures: normal; font-variant-caps: normal; font-weight: 400; letter-spacing: normal; orphans: 2; text-align: center; text-indent: 0px; text-transform: none; widows: 2; word-spacing: 0px; -webkit-text-stroke-width: 0px; background-color: rgb(251, 251, 251); text-decoration-thickness: initial; text-decoration-style: initial; text-decoration-color: initial; float: none; display: inline !important;&quot;&gt;시작&lt;/span&gt;" style="ellipse;whiteSpace=wrap;html=1;" parent="WIyWlLk6GJQsqaUBKTNV-1" vertex="1">
          <mxGeometry x="145" y="10" width="120" height="80" as="geometry" />
        </mxCell>
        <mxCell id="jcfoB18Za6nkCLDU9kAL-4" value="&lt;span style=&quot;color: rgb(0, 0, 0); font-family: Helvetica; font-size: 12px; font-style: normal; font-variant-ligatures: normal; font-variant-caps: normal; font-weight: 400; letter-spacing: normal; orphans: 2; text-align: center; text-indent: 0px; text-transform: none; widows: 2; word-spacing: 0px; -webkit-text-stroke-width: 0px; background-color: rgb(251, 251, 251); text-decoration-thickness: initial; text-decoration-style: initial; text-decoration-color: initial; float: none; display: inline !important;&quot;&gt;끝&lt;/span&gt;" style="ellipse;whiteSpace=wrap;html=1;" parent="WIyWlLk6GJQsqaUBKTNV-1" vertex="1">
          <mxGeometry x="145" y="990" width="120" height="80" as="geometry" />
        </mxCell>
        <mxCell id="QqLcVwo9QoX3QOBpYelw-21" style="edgeStyle=orthogonalEdgeStyle;rounded=0;orthogonalLoop=1;jettySize=auto;html=1;entryX=0.5;entryY=0;entryDx=0;entryDy=0;" edge="1" parent="WIyWlLk6GJQsqaUBKTNV-1" source="jcfoB18Za6nkCLDU9kAL-6" target="QqLcVwo9QoX3QOBpYelw-3">
          <mxGeometry relative="1" as="geometry" />
        </mxCell>
        <mxCell id="jcfoB18Za6nkCLDU9kAL-6" value="&lt;b&gt;func&lt;/b&gt;&lt;span style=&quot;color: rgba(255, 255, 255, 0.85);&quot; class=&quot;s2&quot;&gt; &lt;/span&gt;icecream&amp;nbsp;" style="rounded=0;whiteSpace=wrap;html=1;" parent="WIyWlLk6GJQsqaUBKTNV-1" vertex="1">
          <mxGeometry x="120" y="150" width="166.25" height="70" as="geometry" />
        </mxCell>
        <mxCell id="jcfoB18Za6nkCLDU9kAL-7" value="" style="edgeStyle=orthogonalEdgeStyle;rounded=0;orthogonalLoop=1;jettySize=auto;html=1;" parent="WIyWlLk6GJQsqaUBKTNV-1" source="jcfoB18Za6nkCLDU9kAL-8" target="jcfoB18Za6nkCLDU9kAL-4" edge="1">
          <mxGeometry relative="1" as="geometry" />
        </mxCell>
        <mxCell id="jcfoB18Za6nkCLDU9kAL-8" value="print(&quot;&amp;nbsp; &amp;nbsp; |&amp;nbsp; |&quot;) 출력" style="rounded=0;whiteSpace=wrap;html=1;" parent="WIyWlLk6GJQsqaUBKTNV-1" vertex="1">
          <mxGeometry x="123.75" y="860" width="162.5" height="30" as="geometry" />
        </mxCell>
        <mxCell id="QqLcVwo9QoX3QOBpYelw-2" value="NO" style="text;html=1;strokeColor=none;fillColor=none;align=center;verticalAlign=middle;whiteSpace=wrap;rounded=0;" vertex="1" parent="WIyWlLk6GJQsqaUBKTNV-1">
          <mxGeometry y="250" width="60" height="30" as="geometry" />
        </mxCell>
        <mxCell id="QqLcVwo9QoX3QOBpYelw-19" value="" style="edgeStyle=orthogonalEdgeStyle;rounded=0;orthogonalLoop=1;jettySize=auto;html=1;entryX=0;entryY=0.5;entryDx=0;entryDy=0;" edge="1" parent="WIyWlLk6GJQsqaUBKTNV-1" source="QqLcVwo9QoX3QOBpYelw-3" target="jcfoB18Za6nkCLDU9kAL-6">
          <mxGeometry relative="1" as="geometry">
            <mxPoint x="-45" y="345" as="targetPoint" />
            <Array as="points">
              <mxPoint x="70" y="345" />
              <mxPoint x="70" y="185" />
            </Array>
          </mxGeometry>
        </mxCell>
        <mxCell id="QqLcVwo9QoX3QOBpYelw-3" value="icecream_width = 11&lt;br style=&quot;border-color: var(--border-color);&quot;&gt;icrecream_height = 8" style="rhombus;whiteSpace=wrap;html=1;" vertex="1" parent="WIyWlLk6GJQsqaUBKTNV-1">
          <mxGeometry x="100" y="280" width="210" height="130" as="geometry" />
        </mxCell>
        <mxCell id="QqLcVwo9QoX3QOBpYelw-30" value="" style="edgeStyle=orthogonalEdgeStyle;rounded=0;orthogonalLoop=1;jettySize=auto;html=1;" edge="1" parent="WIyWlLk6GJQsqaUBKTNV-1" source="QqLcVwo9QoX3QOBpYelw-5" target="QqLcVwo9QoX3QOBpYelw-29">
          <mxGeometry relative="1" as="geometry" />
        </mxCell>
        <mxCell id="QqLcVwo9QoX3QOBpYelw-5" value="&lt;br style=&quot;border-color: var(--border-color);&quot;&gt;print(&quot;*&quot;,terminator:&quot;&quot;) 및 print()&lt;br style=&quot;border-color: var(--border-color);&quot;&gt;출력" style="shape=parallelogram;perimeter=parallelogramPerimeter;whiteSpace=wrap;html=1;fixedSize=1;" vertex="1" parent="WIyWlLk6GJQsqaUBKTNV-1">
          <mxGeometry x="102.5" y="479" width="205" height="70" as="geometry" />
        </mxCell>
        <mxCell id="QqLcVwo9QoX3QOBpYelw-6" style="edgeStyle=orthogonalEdgeStyle;rounded=0;orthogonalLoop=1;jettySize=auto;html=1;exitX=0.5;exitY=1;exitDx=0;exitDy=0;" edge="1" parent="WIyWlLk6GJQsqaUBKTNV-1" source="QqLcVwo9QoX3QOBpYelw-5" target="QqLcVwo9QoX3QOBpYelw-5">
          <mxGeometry relative="1" as="geometry" />
        </mxCell>
        <mxCell id="QqLcVwo9QoX3QOBpYelw-8" value="YES" style="text;html=1;align=center;verticalAlign=middle;resizable=0;points=[];autosize=1;strokeColor=none;fillColor=none;" vertex="1" parent="WIyWlLk6GJQsqaUBKTNV-1">
          <mxGeometry x="236.25" y="430" width="50" height="30" as="geometry" />
        </mxCell>
        <mxCell id="QqLcVwo9QoX3QOBpYelw-27" style="edgeStyle=orthogonalEdgeStyle;rounded=0;orthogonalLoop=1;jettySize=auto;html=1;entryX=0.5;entryY=0;entryDx=0;entryDy=0;" edge="1" parent="WIyWlLk6GJQsqaUBKTNV-1" target="QqLcVwo9QoX3QOBpYelw-5">
          <mxGeometry relative="1" as="geometry">
            <mxPoint x="204.5" y="410" as="sourcePoint" />
            <mxPoint x="204.5" y="485" as="targetPoint" />
          </mxGeometry>
        </mxCell>
        <mxCell id="QqLcVwo9QoX3QOBpYelw-31" value="" style="edgeStyle=orthogonalEdgeStyle;rounded=0;orthogonalLoop=1;jettySize=auto;html=1;" edge="1" parent="WIyWlLk6GJQsqaUBKTNV-1" source="QqLcVwo9QoX3QOBpYelw-29">
          <mxGeometry relative="1" as="geometry">
            <mxPoint x="205" y="710" as="targetPoint" />
          </mxGeometry>
        </mxCell>
        <mxCell id="QqLcVwo9QoX3QOBpYelw-29" value="&lt;b style=&quot;border-color: var(--border-color);&quot;&gt;func&lt;/b&gt;&amp;nbsp;icecreamStick" style="rounded=0;whiteSpace=wrap;html=1;" vertex="1" parent="WIyWlLk6GJQsqaUBKTNV-1">
          <mxGeometry x="120" y="610" width="170" height="50" as="geometry" />
        </mxCell>
        <mxCell id="QqLcVwo9QoX3QOBpYelw-34" value="" style="edgeStyle=orthogonalEdgeStyle;rounded=0;orthogonalLoop=1;jettySize=auto;html=1;" edge="1" parent="WIyWlLk6GJQsqaUBKTNV-1" source="QqLcVwo9QoX3QOBpYelw-33" target="jcfoB18Za6nkCLDU9kAL-8">
          <mxGeometry relative="1" as="geometry" />
        </mxCell>
        <mxCell id="QqLcVwo9QoX3QOBpYelw-33" value="icecreamStick_height&amp;nbsp; = 4" style="rhombus;whiteSpace=wrap;html=1;" vertex="1" parent="WIyWlLk6GJQsqaUBKTNV-1">
          <mxGeometry x="110" y="710" width="190" height="80" as="geometry" />
        </mxCell>
        <mxCell id="QqLcVwo9QoX3QOBpYelw-35" value="" style="edgeStyle=orthogonalEdgeStyle;rounded=0;orthogonalLoop=1;jettySize=auto;html=1;entryX=0;entryY=0.5;entryDx=0;entryDy=0;" edge="1" parent="WIyWlLk6GJQsqaUBKTNV-1" target="QqLcVwo9QoX3QOBpYelw-29">
          <mxGeometry relative="1" as="geometry">
            <mxPoint x="110" y="750" as="sourcePoint" />
            <mxPoint x="110" y="640" as="targetPoint" />
            <Array as="points">
              <mxPoint x="80" y="750" />
              <mxPoint x="80" y="630" />
              <mxPoint x="110" y="630" />
              <mxPoint x="110" y="635" />
            </Array>
          </mxGeometry>
        </mxCell>
        <mxCell id="QqLcVwo9QoX3QOBpYelw-37" value="NO" style="text;html=1;align=center;verticalAlign=middle;resizable=0;points=[];autosize=1;strokeColor=none;fillColor=none;" vertex="1" parent="WIyWlLk6GJQsqaUBKTNV-1">
          <mxGeometry x="10" y="668" width="40" height="30" as="geometry" />
        </mxCell>
        <mxCell id="QqLcVwo9QoX3QOBpYelw-38" value="YES" style="text;html=1;align=center;verticalAlign=middle;resizable=0;points=[];autosize=1;strokeColor=none;fillColor=none;" vertex="1" parent="WIyWlLk6GJQsqaUBKTNV-1">
          <mxGeometry x="230" y="800" width="50" height="30" as="geometry" />
        </mxCell>
      </root>
    </mxGraphModel>
  </diagram>
</mxfile>
